# xmcd
#
# Track frame offsets: 
#        150
#        12470
#        26150
#        41367
#        57255
#        80022
#        96817
#        113180
#        125367
#        146852
#        155415
#        169517
#        184375
#        200152
#        212485
#
# Disc length: 2994 seconds
#
# Revision: 1
# Processed by: cddbd v1.5.2PL0 Copyright (c) Steve Scherf et al.
# Submitted via: ExactAudioCopyFreeDBPlugin 1.0
#
DISCID=d50bb00f
DTITLE=El Gran Combo - 15 Grandes Exitos Vol.1
DYEAR=1998
DGENRE=Salsa
TTITLE0=Gran Combo Boogaloo
TTITLE1=Ojos Chinos
TTITLE2=Jala Jala
TTITLE3=Eso No Es Dificil Na'
TTITLE4=Falsaria
TTITLE5=Pata Pata
TTITLE6=Tu Quieres Boogaloo
TTITLE7=Acangana
TTITLE8=Serrana
TTITLE9=Masculino y Femenino
TTITLE10=Lo Que Dios me Dio
TTITLE11=A Mi Manera
TTITLE12=Los Muñequitos
TTITLE13=El Caballo Pelotero
TTITLE14=Que Me Importa
EXTD=YEAR: 1998
EXTT0=
EXTT1=
EXTT2=
EXTT3=
EXTT4=
EXTT5=
EXTT6=
EXTT7=
EXTT8=
EXTT9=
EXTT10=
EXTT11=
EXTT12=
EXTT13=
EXTT14=
PLAYORDER=
